<svg xmlns="http://www.w3.org/2000/svg" xmlns:svg="http://www.w3.org/2000/svg" id="svg8502" width="646" height="250" version="1.1"><metadata id="metadata8507"/><g id="layer1" transform="translate(-289,-312.36218)"><rect style="color:#000;display:inline;overflow:visible;visibility:visible;fill:#000;fill-opacity:1;fill-rule:nonzero;stroke:#a6a6a6;stroke-width:4;stroke-miterlimit:4;stroke-dasharray:none;stroke-opacity:1;marker:none;enable-background:accumulate" id="rect3007" width="560" height="164" x="332" y="355.362" rx="20" ry="20"/><text id="text3013" x="508.951" y="402.367" style="color:#000;font-style:normal;font-variant:normal;font-weight:400;font-stretch:normal;font-size:12.39519119px;line-height:100%;font-family:'DejaVu Sans';-inkscape-font-specification:'DejaVu Sans';letter-spacing:0;word-spacing:0;display:inline;overflow:visible;visibility:visible;fill:#fff;fill-opacity:1;fill-rule:nonzero;stroke:none;stroke-width:1px;marker:none;enable-background:accumulate" xml:space="preserve"><tspan id="tspan3015" x="508.951" y="402.367" style="font-style:normal;font-variant:normal;font-weight:400;font-stretch:normal;font-size:34.125px;font-family:'DejaVu Sans';-inkscape-font-specification:'DejaVu Sans'">GET IT ON</tspan></text><text xml:space="preserve" style="color:#000;font-style:normal;font-variant:normal;font-weight:700;font-stretch:normal;font-size:29.70882034px;line-height:100%;font-family:Rokkitt;-inkscape-font-specification:'Rokkitt Bold';text-align:start;letter-spacing:0;word-spacing:0;writing-mode:lr-tb;text-anchor:start;display:inline;overflow:visible;visibility:visible;fill:#fff;fill-opacity:1;fill-rule:nonzero;stroke:none;stroke-width:1px;marker:none;enable-background:accumulate" id="text5902" x="508.213" y="489.361"><tspan id="tspan5904" x="508.213" y="489.361" style="font-style:normal;font-variant:normal;font-weight:700;font-stretch:normal;font-size:87.5px;line-height:100%;font-family:'Roboto Slab';-inkscape-font-specification:'Roboto Slab Bold';text-align:start;writing-mode:lr-tb;text-anchor:start;fill:#fff;fill-opacity:1">GitHub</tspan></text><g id="g5136" transform="matrix(1.0017681,0,0,1.0017681,68.770756,92.660249)"><path style="fill:#fff;fill-opacity:1;fill-rule:evenodd;stroke:none" id="path4937" d="m 350.60937,282.4375 c -33.34765,0 -60.38671,27.03516 -60.38671,60.38672 0,26.67969 17.30078,49.3164 41.29687,57.30078 3.01563,0.55859 4.125,-1.30859 4.125,-2.90625 0,-1.4375 -0.0547,-6.19531 -0.082,-11.24219 -16.80078,3.65235 -20.34375,-7.125 -20.34375,-7.125 -2.75,-6.98047 -6.70703,-8.83594 -6.70703,-8.83594 -5.48047,-3.74609 0.41406,-3.67187 0.41406,-3.67187 6.0625,0.42578 9.25781,6.22266 9.25781,6.22266 5.38282,9.23437 14.125,6.5664 17.57032,5.02343 0.54296,-3.90234 2.10937,-6.57031 3.83593,-8.07812 -13.41406,-1.52735 -27.51562,-6.70313 -27.51562,-29.84375 0,-6.59375 2.35937,-11.98047 6.22265,-16.20703 -0.625,-1.52344 -2.6914,-7.66407 0.58594,-15.98047 0,0 5.07031,-1.625 16.60938,6.1875 4.82031,-1.33594 9.98437,-2.00781 15.11718,-2.03125 5.13282,0.0234 10.30079,0.69531 15.12891,2.03125 11.52344,-7.8125 16.58984,-6.1875 16.58984,-6.1875 3.28516,8.3164 1.21875,14.45703 0.58985,15.98047 3.87109,4.22656 6.21484,9.61328 6.21484,16.20703 0,23.19531 -14.125,28.30078 -27.57422,29.79687 2.16797,1.875 4.09766,5.55078 4.09766,11.1836 0,8.07812 -0.0703,14.58203 -0.0703,16.57031 0,1.60937 1.08593,3.49219 4.14843,2.89844 23.98047,-7.9961 41.26172,-30.6211 41.26172,-57.29297 0,-33.35156 -27.03515,-60.38672 -60.38672,-60.38672"/><path style="fill:#fff;fill-opacity:1;fill-rule:nonzero;stroke:none" id="path4939" d="m 313.09375,369.14062 c -0.13281,0.30079 -0.60547,0.38672 -1.03516,0.1836 -0.4375,-0.19922 -0.68359,-0.60547 -0.54297,-0.91016 0.12891,-0.30859 0.60157,-0.39062 1.03907,-0.1875 0.4414,0.19922 0.6914,0.61328 0.53906,0.91406"/><path style="fill:#fff;fill-opacity:1;fill-rule:nonzero;stroke:none" id="path4941" d="m 315.53906,371.86719 c -0.28906,0.26562 -0.85156,0.14453 -1.23437,-0.27735 -0.39453,-0.42187 -0.46875,-0.98437 -0.17578,-1.25781 0.29687,-0.26562 0.84375,-0.14062 1.23828,0.28125 0.39453,0.42578 0.47265,0.98438 0.17187,1.25391"/><path style="fill:#fff;fill-opacity:1;fill-rule:nonzero;stroke:none" id="path4943" d="m 317.92187,375.34375 c -0.37109,0.25781 -0.97656,0.0156 -1.35156,-0.51953 -0.37109,-0.53906 -0.37109,-1.17969 0.008,-1.4375 0.375,-0.25781 0.97266,-0.0274 1.35157,0.5039 0.36718,0.54688 0.36718,1.19141 -0.008,1.45313"/><path style="fill:#fff;fill-opacity:1;fill-rule:nonzero;stroke:none" id="path4945-3" d="m 321.18359,378.70312 c -0.33203,0.36719 -1.03906,0.26954 -1.55468,-0.23046 -0.52735,-0.48438 -0.67579,-1.17579 -0.34375,-1.54297 0.33593,-0.36328 1.04687,-0.26172 1.5664,0.23047 0.52344,0.48828 0.6836,1.18359 0.33203,1.54296"/><path style="fill:#fff;fill-opacity:1;fill-rule:nonzero;stroke:none" id="path4947-6" d="m 325.68359,380.65625 c -0.14843,0.47266 -0.82812,0.6875 -1.51172,0.48828 -0.68359,-0.20703 -1.1289,-0.76172 -0.99218,-1.24219 0.14453,-0.47265 0.82422,-0.69922 1.51562,-0.48437 0.67969,0.20703 1.12891,0.75781 0.98828,1.23828"/><path style="fill:#fff;fill-opacity:1;fill-rule:nonzero;stroke:none" id="path4949" d="m 330.625,381.01953 c 0.0156,0.49609 -0.5625,0.91016 -1.28125,0.91797 -0.72266,0.0156 -1.30859,-0.38672 -1.31641,-0.875 0,-0.50391 0.57032,-0.91406 1.28907,-0.92578 0.71875,-0.0156 1.30859,0.38672 1.30859,0.88281"/><path style="fill:#fff;fill-opacity:1;fill-rule:nonzero;stroke:none" id="path4951-7" d="m 335.22266,380.23437 c 0.0859,0.48829 -0.41407,0.98438 -1.125,1.11719 -0.70313,0.12891 -1.35157,-0.17187 -1.44141,-0.65234 -0.0859,-0.5 0.42187,-0.9961 1.12109,-1.125 0.71485,-0.125 1.35547,0.16797 1.44532,0.66015"/></g></g></svg>