<svg xmlns="http://www.w3.org/2000/svg" width="300" height="300" fill="none" viewBox="0 0 300 300"><rect width="150" height="180" x="75" y="50" fill="#FDF7FF" stroke="#E8DEF8" stroke-width="2" rx="24"/><rect width="110" height="16" x="95" y="90" fill="#E8DEF8" rx="4"/><circle cx="105" cy="98" r="3" fill="#FDF7FF"/><circle cx="115" cy="98" r="3" fill="#FDF7FF"/><rect width="110" height="16" x="95" y="120" fill="#E8DEF8" rx="4"/><circle cx="105" cy="128" r="3" fill="#FDF7FF"/><circle cx="115" cy="128" r="3" fill="#FDF7FF"/><rect width="80" height="16" x="95" y="150" fill="#E8DEF8" rx="4"/><circle cx="105" cy="158" r="3" fill="#FDF7FF"/><circle cx="115" cy="158" r="3" fill="#FDF7FF"/><circle cx="195" cy="195" r="30" fill="#6750A4"/><rect width="30" height="4" x="180" y="193" fill="#FDF7FF" rx="2" transform="rotate(45 195 195)"/><circle cx="183" cy="183" r="4" fill="#FDF7FF"/><circle cx="207" cy="207" r="4" fill="#FDF7FF"/><path stroke="#E8DEF8" stroke-linecap="round" stroke-width="2" d="M175 158 H190 V165"/></svg>